<?xml version="1.0" standalone="no"?><svg xmlns="http://www.w3.org/2000/svg" viewBox="0 0 1440 320"><path fill="#f3f4f5" fill-opacity="1" d="M0,128L24,138.7C48,149,96,171,144,186.7C192,203,240,213,288,218.7C336,224,384,224,432,186.7C480,149,528,75,576,53.3C624,32,672,64,720,85.3C768,107,816,117,864,112C912,107,960,85,1008,90.7C1056,96,1104,128,1152,165.3C1200,203,1248,245,1296,250.7C1344,256,1392,224,1416,208L1440,192L1440,320L1416,320C1392,320,1344,320,1296,320C1248,320,1200,320,1152,320C1104,320,1056,320,1008,320C960,320,912,320,864,320C816,320,768,320,720,320C672,320,624,320,576,320C528,320,480,320,432,320C384,320,336,320,288,320C240,320,192,320,144,320C96,320,48,320,24,320L0,320Z"></path></svg>