<?xml version="1.0" standalone="no"?><svg xmlns="http://www.w3.org/2000/svg" viewBox="0 0 1440 320"><path fill="#9d9b9e" fill-opacity="0.3" d="M0,128L26.7,117.3C53.3,107,107,85,160,106.7C213.3,128,267,192,320,186.7C373.3,181,427,107,480,96C533.3,85,587,139,640,181.3C693.3,224,747,256,800,245.3C853.3,235,907,181,960,160C1013.3,139,1067,149,1120,160C1173.3,171,1227,181,1280,160C1333.3,139,1387,85,1413,58.7L1440,32L1440,0L1413.3,0C1386.7,0,1333,0,1280,0C1226.7,0,1173,0,1120,0C1066.7,0,1013,0,960,0C906.7,0,853,0,800,0C746.7,0,693,0,640,0C586.7,0,533,0,480,0C426.7,0,373,0,320,0C266.7,0,213,0,160,0C106.7,0,53,0,27,0L0,0Z"></path></svg>