<?xml version="1.0" standalone="no"?><svg xmlns="http://www.w3.org/2000/svg" viewBox="0 0 1440 320"><path fill="#9d9b9e" fill-opacity="0.3" d="M0,192L17.1,202.7C34.3,213,69,235,103,240C137.1,245,171,235,206,229.3C240,224,274,224,309,218.7C342.9,213,377,203,411,218.7C445.7,235,480,277,514,261.3C548.6,245,583,171,617,149.3C651.4,128,686,160,720,176C754.3,192,789,192,823,213.3C857.1,235,891,277,926,250.7C960,224,994,128,1029,85.3C1062.9,43,1097,53,1131,64C1165.7,75,1200,85,1234,122.7C1268.6,160,1303,224,1337,245.3C1371.4,267,1406,245,1423,234.7L1440,224L1440,320L1422.9,320C1405.7,320,1371,320,1337,320C1302.9,320,1269,320,1234,320C1200,320,1166,320,1131,320C1097.1,320,1063,320,1029,320C994.3,320,960,320,926,320C891.4,320,857,320,823,320C788.6,320,754,320,720,320C685.7,320,651,320,617,320C582.9,320,549,320,514,320C480,320,446,320,411,320C377.1,320,343,320,309,320C274.3,320,240,320,206,320C171.4,320,137,320,103,320C68.6,320,34,320,17,320L0,320Z"></path></svg>