<?xml version="1.0" standalone="no"?><svg xmlns="http://www.w3.org/2000/svg" viewBox="0 0 1440 320"><path fill="#9d9b9e" fill-opacity="0.3" d="M0,288L17.1,245.3C34.3,203,69,117,103,96C137.1,75,171,117,206,138.7C240,160,274,160,309,144C342.9,128,377,96,411,74.7C445.7,53,480,43,514,64C548.6,85,583,139,617,138.7C651.4,139,686,85,720,96C754.3,107,789,181,823,181.3C857.1,181,891,107,926,80C960,53,994,75,1029,80C1062.9,85,1097,75,1131,90.7C1165.7,107,1200,149,1234,170.7C1268.6,192,1303,192,1337,192C1371.4,192,1406,192,1423,192L1440,192L1440,0L1422.9,0C1405.7,0,1371,0,1337,0C1302.9,0,1269,0,1234,0C1200,0,1166,0,1131,0C1097.1,0,1063,0,1029,0C994.3,0,960,0,926,0C891.4,0,857,0,823,0C788.6,0,754,0,720,0C685.7,0,651,0,617,0C582.9,0,549,0,514,0C480,0,446,0,411,0C377.1,0,343,0,309,0C274.3,0,240,0,206,0C171.4,0,137,0,103,0C68.6,0,34,0,17,0L0,0Z"></path></svg>